<?xml-stylesheet type="text/css" href="../../index.css" ?>
<svg id="Download" xmlns="http://www.w3.org/2000/svg" xmlns:xlink="http://www.w3.org/1999/xlink" version="1.1" preserveAspectRatio="xMidYMid" width="16" height="16" viewBox="0 0 16 16" fill="rgb(194,170,136)">
  <path d="M8.000,16.000 C3.589,16.000 -0.000,12.411 -0.000,8.000 C-0.000,3.589 3.589,0.000 8.000,0.000 C12.411,0.000 16.000,3.589 16.000,8.000 C16.000,12.411 12.411,16.000 8.000,16.000 ZM8.000,2.000 C4.691,2.000 2.000,4.691 2.000,8.000 C2.000,11.309 4.691,14.000 8.000,14.000 C11.309,14.000 14.000,11.309 14.000,8.000 C14.000,4.691 11.309,2.000 8.000,2.000 ZM8.707,10.707 C8.512,10.902 8.256,11.000 8.000,11.000 C7.744,11.000 7.488,10.902 7.293,10.707 L4.293,7.707 C3.902,7.317 3.902,6.684 4.293,6.293 C4.684,5.903 5.316,5.903 5.707,6.293 L8.000,8.586 L10.293,6.293 C10.684,5.903 11.316,5.903 11.707,6.293 C12.098,6.684 12.098,7.317 11.707,7.707 L8.707,10.707 Z" class="cls-1"/>
</svg>
