<svg id="GitHub" data-name="Layer 1" xmlns="http://www.w3.org/2000/svg" viewBox="0 0 33.01 34.32" width="29" height="29">
  <defs>
    <style>
      #GitHub {
        fill:rgb(194,170,136);
        fill-rule: evenodd;
      }
    </style>
  </defs>
	<title>GitHub</title>
	<path class="cls-1" d="M16.5,1.27A16.29,16.29,0,0,0,11.36,33c.81.15,1.11-.36,1.11-.79s0-1.41,0-2.77C7.91,30.45,7,27.28,7,27.28A4.3,4.3,0,0,0,5.15,24.9c-1.48-1,.11-1,.11-1a3.41,3.41,0,0,1,2.5,1.67,3.48,3.48,0,0,0,4.74,1.36,3.51,3.51,0,0,1,1-2.18c-3.62-.41-7.42-1.81-7.42-8a6.3,6.3,0,0,1,1.68-4.37A5.82,5.82,0,0,1,8,8s1.37-.44,4.48,1.67a15.37,15.37,0,0,1,8.15,0C23.69,7.59,25.06,8,25.06,8a5.82,5.82,0,0,1,.16,4.31,6.26,6.26,0,0,1,1.68,4.37c0,6.26-3.81,7.63-7.44,8a3.88,3.88,0,0,1,1.1,3c0,2.18,0,3.94,0,4.47s.3.94,1.12.79A16.3,16.3,0,0,0,16.5,1.27Z"/>
</svg>