<?xml-stylesheet type="text/css" href="../../index.css"?>
<svg id="Email" xmlns="http://www.w3.org/2000/svg" version="1.1" xmlns:xlink="http://www.w3.org/1999/xlink" preserveAspectRatio="xMidYMid" width="29" height="29" viewBox="0 0 24 24" fill="rgb(194,170,136)">
	<title>Email</title>
  <path class="email-icon" d="M22.500,15.990 L1.500,15.990 C0.671,15.990 -0.000,15.319 -0.000,14.490 L-0.000,3.700 L11.089,10.743 C11.534,11.077 12.004,11.026 11.987,11.026 C12.438,11.029 12.865,10.769 12.970,10.698 C12.953,10.710 12.934,10.724 12.899,10.750 L24.000,3.665 L24.000,14.490 C24.000,15.319 23.329,15.990 22.500,15.990 ZM12.970,10.698 C13.004,10.674 13.001,10.678 12.970,10.698 ZM-0.000,1.490 C-0.000,0.661 0.671,-0.010 1.500,-0.010 L22.500,-0.010 C23.329,-0.010 24.000,0.661 24.000,1.490 L11.993,9.017 L-0.000,1.490 Z" transform="translate(0 4)"/>
</svg>
