<?xml-stylesheet type="text/css" href="../../index.css" ?>

<svg id="LinkedIn" data-name="Layer 1" xmlns="http://www.w3.org/2000/svg" viewBox="0 0 155.46 144" width="29" height="29" fill="rgb(194,170,136)">
	<title>LinkedIn</title>
	<path class="cls-1" d="M139.07,0H16.36A10.51,10.51,0,0,0,5.73,10.38V133.61A10.51,10.51,0,0,0,16.36,144H139.07a10.53,10.53,0,0,0,10.66-10.39V10.38A10.53,10.53,0,0,0,139.07,0ZM48.44,122.71H27.08V54H48.44ZM37.76,44.59A12.38,12.38,0,1,1,50.14,32.21,12.38,12.38,0,0,1,37.76,44.59Zm90.68,78.12H107.09V89.29c0-8-.14-18.22-11.1-18.22S83.18,79.75,83.18,88.71v34H61.84V54H82.32v9.39h.29c2.85-5.41,9.82-11.1,20.21-11.1,21.62,0,25.62,14.23,25.62,32.73Z"/>
</svg>