<?xml version="1.0" encoding="utf-8"?>
<!-- Generator: Adobe Illustrator 18.0.0, SVG Export Plug-In . SVG Version: 6.00 Build 0)  -->
<!DOCTYPE svg PUBLIC "-//W3C//DTD SVG 1.1 Tiny//EN" "http://www.w3.org/Graphics/SVG/1.1/DTD/svg11-tiny.dtd">
<svg version="1.1" baseProfile="tiny" id="Arrow_1_"
	 xmlns="http://www.w3.org/2000/svg" xmlns:xlink="http://www.w3.org/1999/xlink" x="0px" y="0px" width="29px" height="29px" fill="rgb(0,0,0)"
	 viewBox="0 0 500 500" xml:space="preserve">
  <metadata>
    <?xpacket begin="﻿" id="W5M0MpCehiHzreSzNTczkc9d"?>
    <x:xmpmeta xmlns:x="adobe:ns:meta/" x:xmptk="Adobe XMP Core 5.6-c011 79.156380, 2014/06/19-23:40:37        ">
     <rdf:RDF xmlns:rdf="http://www.w3.org/1999/02/22-rdf-syntax-ns#">
      <rdf:Description rdf:about=""
        xmlns:xmpMM="http://ns.adobe.com/xap/1.0/mm/"
        xmlns:stEvt="http://ns.adobe.com/xap/1.0/sType/ResourceEvent#"
        xmlns:xmp="http://ns.adobe.com/xap/1.0/"
        xmlns:xmpRights="http://ns.adobe.com/xap/1.0/rights/"
        xmlns:dc="http://purl.org/dc/elements/1.1/"
       xmpMM:DocumentID="xmp.did:41035e05c9cdfa6b991b45cfae73e487"
       xmpMM:OriginalDocumentID="xmp.did:41035e05c9cdfa6b991b45cfae73e487"
       xmpMM:InstanceID="xmp.iid:41035e05c9cdfa6b991b45cfae73e487"
       xmp:ModifyDate="2015-04-08T15:51:22+02:00"
       xmp:MetadataDate="2015-04-08T15:51:22+02:00"
       xmpRights:Marked="True"
       xmpRights:WebStatement="http://www.adobe.com/legal/general-terms.html">
       <xmpMM:History>
        <rdf:Seq>
         <rdf:li
          stEvt:action="saved"
          stEvt:instanceID="xmp.iid:41035e05c9cdfa6b991b45cfae73e487"
          stEvt:when="2015-04-08T15:51:22+02:00"/>
        </rdf:Seq>
       </xmpMM:History>
       <xmpRights:UsageTerms>
        <rdf:Alt>
         <rdf:li xml:lang="x-default">This work is licensed under the Adobe General Terms of Use http://www.adobe.com/legal/general-terms.html.</rdf:li>
        </rdf:Alt>
       </xmpRights:UsageTerms>
       <dc:publisher>
        <rdf:Bag>
         <rdf:li>Adobe Systems Incorporated</rdf:li>
        </rdf:Bag>
       </dc:publisher>
      </rdf:Description>
     </rdf:RDF>
    </x:xmpmeta>
    <?xpacket end="r"?>
  </metadata>
<g id="_x33_99-list1.png">
	<g>
		<path d="M39.5,131.6h421.1c21.8,0,39.5-17.7,39.5-39.5s-17.7-39.5-39.5-39.5H39.5C17.7,52.6,0,70.3,0,92.1S17.7,131.6,39.5,131.6z
			 M460.5,368.4H39.5C17.7,368.4,0,386.1,0,407.9c0,21.8,17.7,39.5,39.5,39.5h421.1c21.8,0,39.5-17.7,39.5-39.5
			C500,386.1,482.3,368.4,460.5,368.4z M460.5,210.5H39.5C17.7,210.5,0,228.2,0,250s17.7,39.5,39.5,39.5h421.1
			c21.8,0,39.5-17.7,39.5-39.5S482.3,210.5,460.5,210.5z"/>
	</g>
</g>
</svg>
